<svg width="16" height="16" viewBox="0 0 16 16" fill="none" xmlns="http://www.w3.org/2000/svg">
<path d="M10.6669 5.99998V3.99998C10.6669 2.52722 9.47299 1.33331 8.00023 1.33331C6.52747 1.33331 5.33356 2.52722 5.33356 3.99998V5.99998M2.39489 6.90129L1.99489 11.168C1.88116 12.3811 1.8243 12.9877 2.02559 13.4562C2.20242 13.8677 2.5123 14.208 2.90557 14.4225C3.35324 14.6666 3.96247 14.6666 5.18092 14.6666H10.8195C12.038 14.6666 12.6472 14.6666 13.0949 14.4225C13.4881 14.208 13.798 13.8677 13.9749 13.4562C14.1762 12.9877 14.1193 12.3811 14.0056 11.168L13.6056 6.90129C13.5095 5.87688 13.4615 5.36467 13.2311 4.97742C13.0282 4.63637 12.7284 4.36339 12.3699 4.19321C11.9629 3.99998 11.4484 3.99998 10.4195 3.99998L5.58092 3.99998C4.55202 3.99998 4.03757 3.99998 3.6305 4.19321C3.272 4.36339 2.97223 4.63637 2.76933 4.97742C2.53895 5.36467 2.49093 5.87688 2.39489 6.90129Z" stroke="#344054" stroke-width="1.5" stroke-linecap="round" stroke-linejoin="round"/>
</svg>
